# xmcd
#
# Track frame offsets:
#	150
#	15995
#	27332
#	40992
#	53087
#	62835
#	77382
#	87730
#	98582
#	112292
#
# Disc length: 1679 seconds
# Revision: 1
# Processed by: cddbd v1.5.2PL0 Copyright (c) Steve Scherf et al.
# Submitted via: dBpowerAMP V12.0
#
DISCID=78068d0a
DTITLE=Various Artist - Christmas Country Style
DYEAR=1973
DGENRE=Christmas
TTITLE0=Eddie Rabbitt - Have Yourself A Merry Little Christmas
TTITLE1=Merle Haggard - White Christmas
TTITLE2=Suzy Bogguss - I'll Be Home For Christmas
TTITLE3=Roger Whittaker - Winter Wonderland
TTITLE4=Roy Rodgers And Dale Evans - It's The Most Wonderful Time Of The Year
TTITLE5=Larry Gatlin and The Gatlin Brothers - Do You Hear What I Hear?
TTITLE6=Lacy J. Dalton - Away In A Manger
TTITLE7=Sonny James - Silent Night/The First Noel
TTITLE8=Cristy Lane - Shake Me I Rattle
TTITLE9=Glen Campbell - The Christmas Song
EXTD=
EXTT0=
EXTT1=
EXTT2=
EXTT3=
EXTT4=
EXTT5=
EXTT6=
EXTT7=
EXTT8=
EXTT9=
PLAYORDER=
